<?xml version="1.0" encoding="UTF-8"?>
<svg xmlns="http://www.w3.org/2000/svg" viewBox="0 0 516 711" width="516" height="711">
<g fill="#C8102E" fill-rule="evenodd">
  <path d="M0 0 C4.67 -0.5 8.49 2.32 12 5 C11.32 6.14 11.32 6.14 10 7 C8.15 6.54 6.55 5.64 4.88 4.75 C4.41 4.52 3.94 4.29 3.46 4.05 C0.91 2.74 0.91 2.74 0 2 C0 1.34 0 0.68 0 0 Z " fill="#C8102E" transform="translate(329,71)"/>
  <path d="M0 0 C0 0.66 0 1.32 0 2 C2.15 2.05 4.22 1.94 6.36 1.75 C7.71 1.68 7.71 1.68 10 2 C10.96 4.17 11.13 6.21 11.06 8.56 C11.03 9.98 11 11.4 11 12.81 C11 13.2 11 13.6 11 14 C10.16 13.55 9.33 13.09 8.5 12.62 C8.27 12.5 8.27 12.5 7.09 11.85 C6 11 6 11 6 9 C-0.68 5.08 -8.85 5.54 -16.32 5.61 C-18.36 5.62 -20.41 5.61 -22.45 5.59 C-43.54 5.55 -43.54 5.55 -48.15 12.06 C-48.39 12.45 -48.63 12.84 -48.88 13.25 C-49.5 14.14 -50.14 15.02 -50.77 15.91 C-51.12 16.39 -51.46 16.88 -51.81 17.38 C-54.21 20.64 -56.86 23.69 -59.5 26.75 C-59.78 27.08 -60.06 27.41 -60.36 27.75 C-64.03 32.01 -67.7 35.65 -72.34 38.82 C-76.72 41.93 -79.28 44.81 -79.38 50.31 C-79.2 53.8 -79.2 53.8 -78 55 C-77.29 59.25 -77.21 62.63 -80.31 65.81 C-85.2 70.88 -86.55 79.16 -86 86 C-83.68 81.68 -81.82 77.21 -80.05 72.64 C-79.37 70.89 -78.64 69.19 -77.86 67.48 C-75.83 62.99 -74.82 60.1 -75.44 55.06 C-75.83 48.09 -70.13 44.45 -65.27 40.2 C-64.11 39.1 -63.19 38.03 -62.27 36.74 C-60.74 34.64 -59.32 34.12 -57 33 C-56.41 32.34 -55.83 31.66 -55.27 30.98 C-52.7 28.36 -50.22 28.31 -46.69 28.38 C-46.11 28.38 -45.53 28.39 -44.94 28.39 C-38.26 28.73 -34.8 32.11 -31.12 37.56 C-30.17 39.31 -29.85 40.78 -29.62 42.75 C-29.42 43.49 -29.21 44.23 -29 45 C-27.78 45.16 -26.56 45.32 -25.33 45.41 C-22.73 46.56 -21.96 49.97 -20.99 52.48 C-20.66 52.98 -20.34 53.48 -20 54 C-17.73 53.09 -16.7 51.78 -15.69 49.62 C-13.63 46.01 -10.45 43.52 -6.35 42.65 C-3.97 42.52 -2.53 42.59 -0.62 44.06 C0.33 47.02 0.15 49.92 0 53 C0.58 52.57 1.16 52.13 1.76 51.69 C10.39 45.45 10.39 45.45 15 47 C18.88 48.94 20.53 51.29 21.25 55.54 C22.14 57.28 22.68 57.41 24.39 58.25 C27.91 60.2 28.61 63.2 29.75 66.88 C29.96 67.49 30.17 68.1 30.38 68.73 C31.9 73.31 33.15 77.77 33.12 82.62 C33.13 83.19 33.13 83.76 33.13 84.35 C33 86 33 86 32.51 87.41 C30.95 92.3 31.17 98.87 34.05 103.16 C35 104 35 104 36.59 104.27 C38 105 38 105 38.24 106.11 C38.3 107.6 38.26 109.07 38.19 110.56 C38.18 110.82 38.18 110.82 38.15 112.14 C38.11 113.43 38.06 114.71 38 116 C42.35 113.24 43.68 111.28 44 106.19 C44.69 99.33 46.05 92.71 47.56 86 C51.18 69.88 51.18 69.88 51.25 61.88 C51.27 61.27 51.29 60.66 51.31 60.04 C51.35 55.9 50.71 54.1 48 51 C48 50.34 48 49.68 48 49 C47.26 48.79 46.51 48.59 45.75 48.38 C41.7 46.97 40.4 42.75 39 39 C39 38.34 39 37.68 39 37 C38.34 37 37.68 37 37 37 C36.09 36.04 36.09 36.04 35.16 34.7 C34.82 34.22 34.48 33.73 34.13 33.24 C33.78 32.73 33.42 32.21 33.06 31.69 C29.34 26.34 29.34 26.34 27.25 24.27 C26 23 26 23 26 21 C28.87 22.27 31.11 23.79 33.51 25.8 C34.98 26.98 36.51 28.05 38.05 29.12 C42.33 32.13 46 35.42 46 41 C46.66 41 47.32 41 48 41 C48.96 42.39 48.96 42.39 49.94 44.25 C51.04 46.34 51.96 47.96 53.61 49.66 C56.08 52.91 55.44 57.25 55.38 61.12 C55.37 61.56 55.37 62 55.36 62.46 C55.27 71.83 53.84 80.82 52 90 C51.58 92.15 51.17 94.29 50.77 96.44 C50.51 97.79 50.25 99.14 49.99 100.49 C49.12 105.05 48.57 109.55 48.31 114.18 C47.97 116.2 47.72 116.9 46 118 C44.37 118.12 44.37 118.12 43 118 C43.16 118.35 43.31 118.7 43.47 119.07 C46.85 127.65 42.68 135.66 38 143 C37.73 143.26 37.73 143.26 36.37 144.55 C34.53 146.49 34.33 148.44 34 151 C33.55 154.47 33.16 157.07 30 159 C26.97 159.07 23.99 158.5 21.01 157.97 C19.19 157.74 17.78 157.57 16 158 C14.74 159.86 14.43 161.82 14 164 C12.04 168.03 8.98 171.21 5.88 174.38 C5.53 174.73 5.18 175.09 4.82 175.46 C2.25 178 2.25 178 0 178 C-0.17 179.56 -0.17 179.56 -0.05 181.73 C-0.03 182.12 -0.03 182.12 0.08 184.11 C0.11 184.52 0.14 184.93 0.17 185.36 C0.25 186.6 0.31 187.84 0.37 189.07 C0.51 191.4 0.72 193.69 1 196 C1.07 196.62 1.14 197.24 1.21 197.88 C1.57 199.62 1.85 200.64 3 202 C5.64 203.03 8.25 203.16 11.06 203.31 C11.43 203.34 11.43 203.34 13.26 203.49 C14.75 203.62 16.24 203.73 17.73 203.84 C24.86 204.35 31.28 205.39 38.06 207.69 C38.26 207.75 38.26 207.75 39.26 208.09 C45.44 210.21 50.36 212.29 55 217 C55.35 217.34 55.7 217.68 56.05 218.03 C61.73 223.63 65.92 229.79 69.96 236.62 C74.15 243.67 78.95 250.38 83.94 256.88 C92.01 267.55 98.79 278.86 105.13 290.6 C106.59 293.29 108.13 295.93 109.7 298.56 C110.13 299.29 110.57 300.03 111 300.76 C111.81 302.14 112.64 303.51 113.48 304.87 C116.15 309.43 116.15 309.43 115.4 312.27 C113.7 314.37 111.92 316.32 110.02 318.24 C107.79 322.08 108.72 325.72 110.4 329.64 C111.04 330.99 111.7 332.34 112.38 333.69 C112.73 334.43 113.08 335.16 113.45 335.92 C115.36 339.88 117.4 343.76 119.55 347.6 C125.27 357.85 128.98 367.64 131.91 378.99 C133.1 383.55 134.62 387.97 136.17 392.42 C142.54 410.87 147.56 429.54 143 449 C142.87 449.66 142.73 450.33 142.59 451.01 C141 457.81 137.38 463.09 132 467.38 C127.99 470.57 126.16 474.09 124.09 478.71 C123.02 481.05 121.67 482.92 119.96 484.84 C119.04 485.95 118.35 487.04 117.64 488.3 C113.76 494.88 108.63 501.1 102.5 505.69 C102.13 505.96 101.77 506.24 101.39 506.53 C99.87 507.66 98.35 508.77 96.76 509.81 C88.89 515 88.04 519.92 87.38 529.09 C86.46 540.97 77.9 555.03 67.81 561.5 C66.44 562.31 65.07 563.1 63.69 563.88 C61.59 565.27 60.67 566.64 59.58 568.86 C58.69 570.6 57.49 571.77 56 573 C55.34 573 54.68 573 54 573 C54.01 571.71 54.01 571.71 54.23 570.03 C54.28 568.37 54.28 568.37 54 567 C51.78 566.4 50.51 566.34 48.27 566.48 C47.68 566.5 47.09 566.51 46.49 566.52 C44.6 566.57 42.71 566.66 40.81 566.75 C38.94 566.82 37.06 566.88 35.19 566.93 C34.02 566.97 32.85 567.01 31.68 567.07 C27.79 567.21 23.92 566.92 21 564 C16.32 563.64 16.32 563.64 15.12 564.99 C13.37 566.57 11.74 566.34 9.44 566.38 C8.63 566.4 7.83 566.43 7 566.46 C5 566 5 566 4.19 564.17 C4.02 562.19 4.08 560.84 4.56 558.94 C5.12 556.1 4.7 555.36 3 553 C3.01 552.73 3.01 552.73 3.06 551.37 C3.14 549.15 3.11 547.95 2 546 C-0.81 544.58 -3.95 544.15 -7.02 543.61 C-10.49 542.98 -13.33 542.34 -15 539 C-15.17 536.93 -15.17 536.93 -15.19 534.44 C-15.2 533.63 -15.22 532.83 -15.23 532 C-14.88 524.09 -11.94 516.37 -9.45 508.93 C-9.04 507.7 -8.64 506.46 -8.24 505.23 C-8 504.51 -7.76 503.79 -7.52 503.06 C-6.49 498.98 -6.49 498.98 -7 497 C-8.96 496.33 -10.96 496.47 -13.01 496.5 C-13.64 496.49 -14.26 496.48 -14.91 496.47 C-16.27 496.45 -17.63 496.45 -18.99 496.44 C-22.57 496.43 -26.14 496.35 -29.72 496.27 C-30.43 496.25 -31.15 496.23 -31.88 496.22 C-41.38 495.96 -50.65 494.63 -60 493 C-60.23 492.96 -60.23 492.96 -61.39 492.76 C-64.68 492.2 -67.97 491.61 -71.25 491 C-71.67 490.92 -72.1 490.84 -72.53 490.76 C-77.57 489.83 -82.44 488.63 -87.32 487.11 C-92.15 485.62 -97.07 484.55 -102.01 483.45 C-107.95 482.1 -107.95 482.1 -110.49 481 C-113.97 479.5 -117.69 478.82 -121.38 478 C-125.55 477.06 -129.69 476.12 -133.79 474.88 C-138.88 473.43 -138.88 473.43 -141 474 C-141.32 475.77 -141.32 477.04 -141.19 478.81 C-141.15 479.9 -141.12 480.99 -141.09 482.08 C-141.07 482.7 -141.05 483.31 -141.03 483.94 C-140.97 487.54 -141.06 491.13 -141.2 494.73 C-141.25 495.98 -141.27 497.24 -141.29 498.5 C-141.59 505.79 -141.59 505.79 -144.77 508.3 C-147.07 509.62 -149.38 510.38 -151.94 511.06 C-152.23 511.15 -152.23 511.15 -153.71 511.58 C-157.69 512.66 -161.56 513.19 -165.66 513.5 C-176.94 514.38 -176.94 514.38 -181 516 C-182.87 519.58 -181.27 522.42 -179.8 525.97 C-178.44 529.42 -177.5 532.98 -176.5 536.54 C-176.12 537.89 -175.73 539.23 -175.33 540.57 C-171.76 552.82 -167.93 566.66 -169.06 579.5 C-169.27 582.39 -168.7 583.79 -166.84 585.99 C-160.25 593.95 -160.03 604.18 -160 614 C-159.96 614.93 -159.93 615.87 -159.89 616.8 C-159.96 620.34 -159.96 620.34 -161 622 C-163.98 623.43 -166.06 623.57 -169 622 C-169.22 620.08 -169.2 618.6 -169.04 616.71 C-168.75 610.36 -169.98 605.03 -171.88 599.01 C-172.38 597.41 -172.86 595.81 -173.34 594.21 C-173.65 593.18 -173.96 592.15 -174.27 591.12 C-174.34 590.89 -174.34 590.89 -174.71 589.69 C-175.34 587.69 -175.9 586.15 -177.1 584.41 C-178.27 582.57 -178.17 581.41 -178.05 579.24 C-178.03 578.53 -178.01 577.83 -177.98 577.1 C-177.91 575.61 -177.83 574.12 -177.75 572.63 C-177.74 572.28 -177.74 572.28 -177.68 570.49 C-177.66 570.17 -177.66 570.17 -177.58 568.53 C-177.72 568.03 -177.86 567.52 -178 567 C-178.33 566.92 -178.33 566.92 -179.97 566.51 C-180.64 566.34 -181.31 566.17 -182 566 C-182.59 564.38 -182.59 564.38 -182.72 562.27 C-182.78 561.5 -182.85 560.72 -182.91 559.92 C-182.93 559.5 -182.96 559.09 -182.98 558.66 C-183.12 556.49 -183.31 554.33 -183.5 552.16 C-183.54 551.73 -183.58 551.29 -183.62 550.84 C-183.98 546.76 -184.67 542.76 -185.5 538.75 C-185.62 538.17 -185.74 537.59 -185.86 536.99 C-186.48 534.08 -187.21 531.24 -188.05 528.39 C-188.64 526.37 -189.13 524.44 -189.39 522.35 C-189.49 521.59 -189.59 520.84 -189.69 520.06 C-189.77 519.29 -189.86 518.52 -189.95 517.72 C-191 516 -191 516 -192.41 515.64 C-197.08 515.42 -200.47 516.82 -204.5 519 C-211.88 522.99 -217.23 522.7 -224.94 519.62 C-226.16 519.16 -227.38 518.7 -228.61 518.24 C-229.19 518.02 -229.77 517.8 -230.37 517.58 C-233.05 516.63 -235.76 516.01 -238.55 515.46 C-240.26 514.92 -240.94 514.44 -242 513 C-242.49 511.33 -242.82 509.66 -243.14 507.95 C-244.02 505.95 -244.76 505.16 -246.31 503.69 C-249.26 500.88 -251.19 497.78 -253.19 494.25 C-253.36 493.97 -253.36 493.97 -254.22 492.52 C-258.62 484.84 -259.33 476.82 -259.37 468.13 C-259.38 467.2 -259.39 466.27 -259.4 465.34 C-259.41 463.4 -259.42 461.45 -259.43 459.51 C-259.43 457.56 -259.45 455.61 -259.49 453.66 C-259.83 434.81 -256.41 419.5 -247.76 402.51 C-247.13 401.25 -246.53 399.99 -245.95 398.71 C-243.27 392.96 -239.65 387.82 -236.09 382.6 C-234.27 379.93 -232.48 377.25 -230.69 374.56 C-230.36 374.08 -230.04 373.6 -229.7 373.1 C-229.55 372.86 -229.55 372.86 -228.76 371.69 C-228.49 371.29 -228.22 370.89 -227.95 370.48 C-227.64 369.99 -227.32 369.5 -227 369 C-226.75 368.69 -226.5 368.38 -226.25 368.07 C-223.19 363.87 -223.44 359.1 -223.3 354.12 C-223.27 353.15 -223.23 352.18 -223.19 351.21 C-223.09 348.66 -223.01 346.11 -222.93 343.55 C-222.84 341 -222.75 338.45 -222.65 335.89 C-222.64 335.65 -222.64 335.65 -222.6 334.39 C-222.56 333.4 -222.52 332.4 -222.48 331.41 C-222.45 330.43 -222.41 329.45 -222.38 328.47 C-222.17 322.77 -221.95 317.08 -221.55 311.39 C-221.52 310.91 -221.49 310.42 -221.45 309.92 C-220.54 298.24 -213.35 290.32 -204.48 283.42 C-201.4 280.46 -200.71 277.33 -200.78 273.19 C-200.78 272.72 -200.78 272.26 -200.78 271.78 C-200.77 270.78 -200.78 269.78 -200.79 268.78 C-200.8 267.19 -200.79 265.61 -200.78 264.03 C-200.75 259.52 -200.74 255.02 -200.77 250.51 C-200.79 247.75 -200.77 244.99 -200.74 242.23 C-200.74 241.18 -200.74 240.13 -200.76 239.08 C-200.88 230.9 -200.88 230.9 -198.73 228.69 C-191.43 224.83 -183.32 227.55 -176 230 C-174.69 231.31 -174.9 231.8 -174.96 233.61 C-174.98 234.16 -175 234.71 -175.01 235.28 C-175.03 235.58 -175.03 235.58 -175.09 237.1 C-175.11 237.72 -175.13 238.34 -175.15 238.98 C-175.22 241.01 -175.3 243.04 -175.38 245.06 C-175.42 246.44 -175.47 247.82 -175.52 249.19 C-175.86 258.47 -176.3 267.74 -177 277 C-174.76 275.88 -174.63 275.57 -173.7 273.38 C-173.47 272.84 -173.24 272.3 -173 271.75 C-172.75 271.17 -172.5 270.59 -172.25 270 C-170.01 264.93 -167.5 260.37 -164.3 255.85 C-163.28 254.4 -162.37 252.98 -161.5 251.44 C-159.54 248.11 -157.19 245.07 -154.81 242.04 C-154.05 241.06 -153.3 240.08 -152.55 239.09 C-143.54 228 -130.98 219.02 -117.33 214.86 C-115.21 214.08 -113.53 213.18 -111.62 212.01 C-105.59 208.34 -99.22 206.28 -92.5 204.25 C-92.02 204.1 -91.53 203.95 -91.03 203.8 C-85.24 202.04 -79.5 200.58 -73.5 199.72 C-69.15 199.05 -69.15 199.05 -68 197 C-67.74 195.16 -67.6 193.47 -67.56 191.62 C-67.54 191.08 -67.53 190.55 -67.52 190 C-67.49 188.87 -67.48 187.74 -67.46 186.61 C-67.44 184.9 -67.36 183.2 -67.29 181.49 C-67.1 173.38 -68.89 169.3 -75 164 C-80.44 158.92 -85.8 152.15 -86.56 144.62 C-86.61 144.19 -86.65 143.76 -86.7 143.32 C-86.94 140.76 -87 138.28 -86.89 135.71 C-86.87 135.16 -86.85 134.62 -86.82 134.06 C-86.78 132.99 -86.7 131.92 -86.61 130.85 C-86.55 129.37 -86.55 129.37 -87 127 C-89.29 126.32 -89.29 126.32 -90.67 126.19 C-94.95 125.57 -98.99 120.63 -100.94 117 C-102.98 111.38 -103.51 102.25 -101.23 96.61 C-99.59 94.46 -98.65 94.51 -96 94.44 C-92.26 94.32 -92.26 94.32 -90.75 92.47 C-90.63 92.23 -90.63 92.23 -90 91 C-90.49 90.91 -90.97 90.81 -91.47 90.71 C-93 90 -93 90 -93.43 88.5 C-93.45 82.69 -91.8 78.34 -89.48 73.13 C-88.64 71.16 -88.02 69.11 -87.39 67.06 C-87 66 -87 66 -86 65 C-85.95 63.74 -85.96 62.47 -86.01 61.21 C-86.02 60.43 -86.04 59.66 -86.06 58.86 C-86.1 57.23 -86.15 55.59 -86.21 53.96 C-86.4 43.86 -82.07 36.38 -74.42 30.03 C-71.15 27.26 -68.3 24.17 -65.44 21 C-64.96 20.48 -64.49 19.96 -64 19.42 C-60.53 15.59 -60.53 15.59 -58.99 13.86 C-50.11 3.85 -38.66 0.97 -25.77 -0.01 C-24.2 -0.12 -22.63 -0.25 -21.07 -0.39 C-3.62 -1.81 -3.62 -1.81 0 0 Z M-48.88 34.25 C-49.32 34.48 -49.77 34.71 -50.23 34.94 C-53.47 36.64 -56.34 38.46 -59 41 C-59.43 41.4 -59.86 41.8 -60.3 42.22 C-61.58 43.45 -62.81 44.68 -64 46 C-64.5 46.53 -65.01 47.07 -65.53 47.62 C-67.87 50.8 -68.21 54.83 -68.94 58.62 C-70.35 65.5 -72.14 71.61 -75 78 C-78.35 86.54 -78.82 95.71 -77.43 104.73 C-76.82 109.37 -77.34 113.69 -77.94 118.31 C-78.71 124.79 -79.37 131.17 -79.06 137.69 C-79.02 138.62 -78.99 139.56 -78.97 140.49 C-78.84 147.94 -77.84 153.08 -73 159 C-72.79 159.26 -72.79 159.26 -71.72 160.6 C-69.33 163.58 -66.9 166.53 -64.43 169.44 C-64.01 169.93 -63.59 170.42 -63.16 170.93 C-62 172 -62 172 -60 172 C-59.84 173.97 -59.82 175.8 -59.88 177.77 C-59.9 178.37 -59.91 178.97 -59.93 179.58 C-59.97 180.86 -60.01 182.14 -60.06 183.41 C-60.12 185.33 -60.16 187.25 -60.2 189.17 C-60.44 197.94 -61.25 208.39 -69 214 C-70.5 212.5 -70.33 211.01 -70.56 208.94 C-70.65 208.2 -70.73 207.47 -70.82 206.71 C-70.85 206.43 -70.85 206.43 -71 205 C-72.48 205.22 -72.48 205.22 -74 206 C-74.4 208 -74.4 208 -74.38 210.44 C-74.38 210.84 -74.38 210.84 -74.4 212.87 C-73.9 215.55 -73.39 215.8 -71 217 C-63.97 217.84 -56.74 216.62 -49.81 215.44 C-49.3 215.35 -48.8 215.27 -48.27 215.18 C-40.14 213.81 -32.26 211.86 -24.38 209.44 C-24.13 209.36 -24.13 209.36 -22.91 208.99 C-9.47 204.84 -9.47 204.84 -6.64 201.29 C-5.71 197.95 -5.75 194.77 -5.81 191.31 C-5.81 190.62 -5.81 189.93 -5.81 189.22 C-5.86 184.14 -5.86 184.14 -7 183 C-11.34 182.65 -11.34 182.65 -13.85 183.99 C-16.33 185.15 -18.44 185.24 -21.12 185.31 C-25.93 185.57 -29.37 186.88 -33.56 189.18 C-36.71 190.91 -39.33 192 -43 192 C-43.46 190.62 -43.46 190.62 -43 189 C-40.84 188.04 -40.84 188.04 -39.45 187.57 C-37.42 186.77 -35.78 185.57 -34 184.33 C-29.46 181.17 -25.74 178.63 -20 180 C-19.53 180.2 -19.07 180.39 -18.59 180.6 C-16.59 181.11 -15.92 180.76 -14.11 179.81 C-13.57 179.53 -13.03 179.25 -12.47 178.96 C-12.19 178.8 -12.19 178.8 -10.75 178 C-10.17 177.68 -9.58 177.36 -8.98 177.02 C-0.19 171.99 5.54 164.95 8.95 155.43 C11.22 149.22 11.22 149.22 13.73 148.51 C15.62 148.56 15.62 148.56 17.41 148.88 C19.48 149.04 19.64 148.46 21 147 C22.08 146.78 23.16 146.59 24.25 146.44 C29.53 145.02 31.54 140.48 34 136 C34.25 135.56 34.5 135.12 34.76 134.67 C35.51 133.35 36.23 132.02 36.94 130.69 C37.16 130.28 37.39 129.87 37.62 129.45 C38.65 127.39 39 126.01 38.91 123.69 C38.61 123.13 38.31 122.58 38 122 C36.24 121.85 35.13 121.92 33.44 122.25 C33.01 122.32 32.59 122.38 32.15 122.45 C31.1 122.61 30.05 122.81 29 123 C29.14 122.26 29.29 121.53 29.44 120.77 C29.63 119.78 29.81 118.8 30 117.81 C30.1 117.33 30.19 116.85 30.29 116.35 C30.38 115.87 30.47 115.39 30.56 114.89 C30.65 114.46 30.73 114.03 30.82 113.58 C31.37 108.82 31.47 107.04 28.02 103.54 C23.46 98.22 24.41 92.05 24.75 85.44 C25.4 69.03 25.4 69.03 23 65 C20.98 63.88 20.98 63.88 19 63 C18.11 61.4 17.72 59.72 17.31 57.94 C16.08 53.08 16.08 53.08 15 52 C11.67 52.12 8.42 52.7 5.38 54.06 C2.71 55.21 0.91 55.45 -2 55 C-3.1 54 -3.96 53 -4.81 51.78 C-6.5 50.67 -7.89 50.92 -9.79 51.4 C-12.08 52.54 -12.72 54.72 -13.62 57 C-15.58 61.75 -15.58 61.75 -17.59 62.95 C-18.05 62.96 -18.52 62.98 -19 63 C-20 60.87 -20 60.87 -20.47 59.48 C-21.01 57.97 -21.65 56.64 -22.44 55.25 C-22.66 54.84 -22.89 54.44 -23.12 54.02 C-24.32 52.63 -25.19 52.21 -27 52 C-27.95 53.21 -27.95 53.21 -28.69 54.94 C-28.81 55.22 -28.81 55.22 -29.45 56.65 C-29.63 57.1 -29.81 57.54 -30 58 C-33 55.51 -33.48 53.56 -34.19 49.94 C-34.62 48.06 -35.12 46.77 -36 45 C-38.07 44.29 -38.07 44.29 -40.38 44.06 C-42.52 43.82 -42.52 43.82 -44 43 C-44.24 39.27 -42.39 35.39 -41 32 C-44.02 31.65 -46.27 32.91 -48.88 34.25 Z M-94.61 102.7 C-95.05 105.31 -95.18 107.79 -95.19 110.44 C-95.2 110.9 -95.21 111.37 -95.22 111.85 C-95.24 115.33 -94.66 117.91 -93 121 C-90.95 121.9 -89.12 121.64 -87 121 C-85.44 119.25 -85.44 119.25 -85 117 C-85.75 115.22 -86.59 114.41 -88 113 C-88.66 113 -89.32 113 -90 113 C-90 112.34 -90 111.68 -90 111 C-88.91 110.59 -88.91 110.59 -87.5 110.38 C-87.04 110.3 -86.57 110.23 -86.09 110.15 C-85.91 110.12 -85.91 110.12 -85 110 C-85.65 108.65 -86.32 107.33 -87 106 C-87.11 105.77 -87.11 105.77 -87.66 104.62 C-89.48 101.14 -89.48 101.14 -92.12 100.44 C-94 101 -94 101 -94.61 102.7 Z M18 205 C16.23 205.54 14.68 206.17 13 206.94 C11.89 207.42 10.77 207.9 9.66 208.38 C7.84 209.18 6.02 209.99 4.2 210.82 C-5.38 215.18 -14.94 218.26 -25.12 220.88 C-25.71 221.03 -26.3 221.18 -26.9 221.33 C-34.7 223.33 -42.34 225.21 -50.44 225.12 C-50.94 225.12 -51.44 225.12 -51.95 225.11 C-53.63 225.09 -55.32 225.05 -57 225 C-57.64 224.98 -58.27 224.96 -58.93 224.95 C-83.13 224.14 -83.13 224.14 -89.97 215.82 C-92.29 213.11 -92.29 213.11 -94.3 212.8 C-98.36 213.19 -101.35 215.34 -104.67 217.55 C-107.31 219.25 -110.11 220.58 -112.94 221.94 C-122.58 226.67 -130.2 232.64 -138 240 C-138.48 240.44 -138.96 240.88 -139.46 241.34 C-146.34 247.85 -151.66 255.69 -156.33 263.87 C-157.3 265.51 -158.42 267.06 -159.5 268.62 C-161.98 272.57 -163.64 276.78 -165.31 281.12 C-165.58 281.81 -165.85 282.49 -166.12 283.19 C-169.08 291.19 -169.08 291.19 -168 295 C-166.54 296.29 -165.57 296.92 -163.88 297.75 C-149.28 306.34 -147.78 327.99 -146.21 343.2 C-145.71 347.5 -144.85 351.75 -144 356 C-141.03 354.02 -139.55 352.83 -138.5 349.31 C-138.38 348.92 -138.26 348.54 -138.14 348.14 C-136.45 342.38 -135.09 336.53 -133.67 330.71 C-132.88 327.49 -132.07 324.27 -131.26 321.05 C-130.94 319.81 -130.63 318.56 -130.32 317.32 C-129.85 315.46 -129.38 313.6 -128.91 311.73 C-128.47 309.97 -128.03 308.21 -127.59 306.44 C-127.45 305.88 -127.3 305.32 -127.16 304.75 C-126.53 302.24 -125.93 299.73 -125.42 297.19 C-125.33 296.76 -125.24 296.34 -125.15 295.91 C-124.93 294.8 -124.72 293.7 -124.51 292.59 C-124 291 -124 291 -122 290 C-125.62 314.82 -125.62 314.82 -127.88 324.75 C-129.35 331.25 -130.48 337.79 -131.52 344.38 C-131.58 344.8 -131.65 345.22 -131.72 345.65 C-132.39 349.96 -133.05 354.27 -133.7 358.59 C-133.89 359.82 -134.08 361.06 -134.27 362.3 C-134.5 363.83 -134.73 365.37 -134.96 366.9 C-135.57 370.86 -136.39 374.64 -137.55 378.48 C-138.09 380.31 -138.48 382.14 -138.82 384.01 C-138.94 384.68 -139.07 385.36 -139.19 386.06 C-139.32 386.74 -139.44 387.42 -139.56 388.12 C-139.81 389.5 -140.06 390.88 -140.32 392.26 C-140.42 392.86 -140.53 393.46 -140.64 394.07 C-140.9 395.47 -141.2 396.85 -141.51 398.23 C-142.11 401.23 -142.15 404.15 -142.15 407.2 C-142.15 407.79 -142.15 408.39 -142.16 409.01 C-142.16 410.98 -142.17 412.94 -142.17 414.91 C-142.17 416.28 -142.17 417.66 -142.18 419.03 C-142.18 421.9 -142.19 424.77 -142.19 427.65 C-142.19 431.32 -142.2 435 -142.22 438.68 C-142.23 441.51 -142.23 444.35 -142.23 447.18 C-142.23 448.54 -142.23 449.89 -142.24 451.25 C-142.25 453.14 -142.25 455.04 -142.24 456.93 C-142.25 457.21 -142.25 457.21 -142.26 458.62 C-142.23 461.89 -141.87 464.21 -140 467 C-138.24 467.67 -136.9 468.03 -135.07 468.31 C-134.58 468.4 -134.09 468.49 -133.58 468.59 C-132.51 468.78 -131.44 468.97 -130.37 469.15 C-127.5 469.64 -124.64 470.18 -121.78 470.72 C-121.2 470.83 -120.62 470.93 -120.02 471.04 C-115.3 471.92 -110.64 472.97 -105.98 474.13 C-78.15 481.03 -49.81 487.16 -20.98 486.07 C-19.09 486 -17.2 485.97 -15.31 485.94 C-14.23 485.9 -13.15 485.86 -12.06 485.81 C-11.83 485.81 -11.83 485.81 -10.65 485.8 C-6.59 485.52 -4.99 483.25 -3 480 C-2.06 477.64 -1.48 475.25 -0.92 472.78 C-0.75 472.07 -0.58 471.35 -0.4 470.62 C0.07 468.66 0.52 466.7 0.97 464.73 C1.25 463.49 1.54 462.25 1.83 461.01 C5.56 445.03 8.52 428.92 11.26 412.75 C11.49 411.4 11.72 410.05 11.95 408.69 C12.1 407.81 12.25 406.92 12.4 406.04 C13.19 401.33 14.04 396.66 15.09 392 C15.18 391.6 15.27 391.19 15.37 390.77 C15.46 390.37 15.55 389.97 15.64 389.56 C17.55 381.03 18.65 372.87 18.78 364.13 C18.81 362.21 18.87 360.28 18.93 358.35 C18.96 357.09 18.99 355.84 19.02 354.58 C19.03 354.3 19.03 354.3 19.06 352.88 C19.12 348.84 18.67 344.98 18 341 C20.9 341.79 20.9 341.79 21.81 343.7 C22.23 345.03 22.65 346.36 23.06 347.7 C23.21 347.91 23.21 347.91 24 349 C27.79 348 29.27 345.5 31.25 342.31 C33.55 338.81 35.89 335.92 39.12 333.25 C48.45 325.51 51.04 317.41 52.77 305.82 C53.16 303.16 53.59 300.5 54.02 297.85 C54.06 297.59 54.06 297.59 54.27 296.29 C54.99 291.9 55.93 287.6 57.14 283.31 C57.64 281.51 58.01 280.1 57.86 278.22 C57.91 277.82 57.95 277.41 58 277 C64.68 275.31 71.96 280.25 77.5 283.29 C78.17 283.65 78.84 284.01 79.52 284.38 C80.12 284.72 80.72 285.05 81.33 285.4 C83.33 286.12 84.23 286.23 86 285 C85.71 282.09 84.51 279.93 82.96 277.5 C82.55 276.84 82.14 276.19 81.71 275.52 C81.27 274.83 80.83 274.14 80.38 273.44 C79.92 272.72 79.46 272 79.01 271.28 C78.1 269.85 77.19 268.42 76.27 266.99 C75.17 265.26 74.08 263.53 72.99 261.79 C70.49 257.77 67.96 253.87 65.06 250.12 C62.51 246.79 60.26 243.33 58.06 239.75 C57.89 239.47 57.89 239.47 57.03 238.07 C55.37 235.35 53.78 232.62 52.29 229.81 C46 218.09 37.37 209.88 24 207 C23.06 206.97 22.12 206.97 21.18 207 C20.46 207 19.74 207 19 207 C18.67 206.34 18.34 205.68 18 205 Z M-192 233 C-192.06 234.69 -192.06 234.69 -191 236 C-188.84 236.18 -187 235.83 -185 235 C-183.62 232.94 -183.62 232.94 -183 231 C-189.85 230.6 -189.85 230.6 -192 233 Z M-195 238 C-194.94 238.7 -194.89 239.4 -194.83 240.12 C-194.34 246.38 -193.86 252.65 -193.39 258.91 C-193.13 262.35 -192.85 265.79 -192.54 269.23 C-191.17 285.45 -191.17 285.45 -195.97 289.89 C-197.86 291.48 -199.84 292.92 -201.85 294.36 C-212.73 302.35 -212.14 318.92 -212.61 331.03 C-212.69 332.89 -212.78 334.75 -212.87 336.62 C-212.92 337.8 -212.97 338.99 -213.01 340.18 C-213.04 340.73 -213.07 341.29 -213.1 341.86 C-213.11 342.12 -213.11 342.12 -213.15 343.42 C-213.17 343.87 -213.19 344.32 -213.21 344.79 C-212.93 346.42 -212.27 346.98 -211 348 C-207.27 349.39 -203.33 349.16 -199.41 349.17 C-198.67 349.17 -197.93 349.17 -197.17 349.18 C-195.6 349.18 -194.03 349.19 -192.46 349.19 C-190.1 349.19 -187.75 349.21 -185.39 349.22 C-178.4 349.25 -171.49 349.16 -164.56 348.18 C-164.3 348.14 -164.3 348.14 -162.97 347.97 C-159.79 347.44 -158.02 346.68 -156 344 C-154.15 333.53 -157.83 322.02 -160.88 312.12 C-161 311.72 -161.12 311.31 -161.25 310.89 C-165.25 297.7 -165.25 297.7 -171.09 295.64 C-172.22 295.34 -173.36 295.07 -174.5 294.81 C-175.64 294.54 -176.77 294.25 -177.91 293.96 C-178.16 293.9 -178.16 293.9 -179.42 293.61 C-184.59 291.61 -184.59 291.61 -185.35 288.62 C-185.48 286.86 -185.48 285.15 -185.43 283.39 C-185.42 282.75 -185.42 282.1 -185.42 281.44 C-185.4 279.37 -185.36 277.31 -185.31 275.25 C-185.3 273.88 -185.29 272.51 -185.28 271.13 C-185.27 269.8 -185.25 268.47 -185.24 267.14 C-185.23 266.53 -185.22 265.92 -185.22 265.29 C-185.13 261.13 -184.66 257.11 -184 253 C-183.68 250.91 -183.42 248.85 -183.25 246.75 C-183.16 246.23 -183.07 245.72 -182.98 245.19 C-182.87 243.41 -183.14 242.56 -184 241 C-185.13 240.37 -185.13 240.37 -186.5 239.97 C-186.99 239.83 -187.48 239.69 -187.99 239.54 C-190.31 238.95 -192.64 238.45 -195 238 Z M64.02 284.47 C63.52 286.32 63.25 288.1 63 290 C62.67 290.33 62.34 290.66 62 291 C61.72 292.25 61.72 292.25 61.5 293.85 C61.42 294.45 61.34 295.04 61.25 295.66 C61.17 296.31 61.09 296.96 61 297.62 C60.91 298.3 60.82 298.97 60.73 299.66 C60.21 303.71 59.88 307.73 59.71 311.81 C59.22 322.9 57.24 334.33 47.46 341.06 C46.96 341.37 46.45 341.68 45.94 342 C38.7 346.49 36.38 354.59 33.94 362.25 C33.77 362.77 33.59 363.3 33.42 363.84 C30.65 372.31 28.52 380.76 26.89 389.52 C26.36 392.32 25.74 395.06 25.01 397.81 C23.43 403.79 22.23 409.83 21.13 415.91 C21.05 416.36 20.97 416.8 20.89 417.27 C20.13 421.46 19.37 425.66 18.63 429.85 C16.47 442.04 13.89 453.96 10.58 465.89 C8.24 474.4 6.06 482.9 4.72 491.63 C3.47 499.6 1.75 507.41 -1.24 514.92 C-3.64 521.47 -5.26 528.13 -5.31 535.12 C-5.32 535.59 -5.32 536.05 -5.33 536.52 C-5.29 538.32 -5.17 539.71 -4.27 541.28 C-1.78 542.69 1.21 542.36 4 542.46 C6 543 6 543 6.78 545.04 C6.81 545.36 6.81 545.36 7 547 C11.01 542.77 13.6 538.26 15.91 532.97 C16.45 531.73 17.01 530.51 17.58 529.28 C17.93 528.5 18.27 527.71 18.62 526.92 C18.93 526.22 19.25 525.51 19.57 524.78 C20 523 20 523 19.21 521.8 C17.46 520.64 15.64 520.2 13.62 519.62 C6.85 517.5 6.85 517.5 5 514 C4.47 511.56 4.33 509.42 5 507 C6.94 505.52 9.08 505.2 11.44 504.75 C12.65 504.48 13.85 504.2 15.06 503.92 C15.69 503.78 16.33 503.64 16.99 503.5 C20.32 502.68 23.53 501.53 26.77 500.41 C28.49 499.83 30.22 499.29 31.94 498.74 C33.76 498.17 35.57 497.59 37.38 497 C38.3 496.71 39.22 496.42 40.15 496.13 C48.37 493.56 53.4 490.94 57.62 483.19 C57.96 482.59 58.29 482 58.63 481.38 C63.07 473.25 66.99 464.85 70.89 456.45 C72.22 453.59 73.62 450.79 75.1 448.01 C82.69 433.76 84.91 420.18 86.45 404.19 C86.91 399.51 87.7 395.03 88.75 390.44 C90.08 384.14 90.35 377.92 90.44 371.5 C90.45 371.03 90.46 370.57 90.47 370.09 C90.61 363.8 90.05 358.15 86 353 C84.71 352.15 83.66 351.74 82.16 351.38 C79.71 350.72 77.74 349.89 76 348 C75.3 345.61 75.41 343.32 75.51 340.86 C75.53 340.15 75.54 339.44 75.56 338.72 C75.85 330.76 77.41 323.08 79.06 315.31 C79.51 313.19 79.95 311.07 80.38 308.94 C80.64 307.64 80.91 306.33 81.2 305.03 C81.95 301.37 82.24 298.58 81 295 C79.83 294.17 79.83 294.17 78.38 293.89 C77.86 293.78 77.33 293.66 76.79 293.54 C76.52 293.49 76.52 293.49 75.12 293.25 C74.04 293.03 72.96 292.8 71.88 292.58 C71.38 292.48 70.88 292.38 70.36 292.28 C67.36 291.67 67.36 291.67 66 291 C66 290.34 66 289.68 66 289 C66.39 289.16 66.78 289.32 67.18 289.48 C69.48 290.14 71.69 290.22 74.06 290.25 C74.29 290.26 74.29 290.26 75.42 290.31 C77.79 290.34 78.72 290.32 80.31 288.48 C80.54 287.99 80.76 287.5 81 287 C67.08 279.88 67.08 279.88 64.02 284.47 Z M90 295 C89.38 296.4 89.38 296.4 89.05 298.52 C88.99 298.91 88.99 298.91 88.67 300.87 C88.61 301.28 88.55 301.7 88.49 302.12 C88.32 303.34 88.12 304.55 87.92 305.76 C87.07 311.23 86.84 316.47 87 322 C90.54 320.33 92.72 318.55 95.31 315.69 C95.68 315.31 96.06 314.93 96.44 314.54 C98.4 312.38 99.03 311.55 98.88 308.54 C98.06 305.83 96.89 303.27 95.62 300.75 C95.42 300.3 95.21 299.86 94.99 299.4 C94.89 299.19 94.89 299.19 94.35 298.11 C94.16 297.73 93.98 297.35 93.78 296.95 C92.65 295.58 91.76 295.18 90 295 Z M93.44 335.75 C92.69 336.64 91.94 337.53 91.18 338.42 C91 338.64 91 338.64 90.09 339.74 C89.03 340.96 87.91 342.04 86.73 343.14 C85.47 344.38 85.05 344.81 84.62 346.56 C85.35 350.65 86.85 351.9 90.38 353.94 C95.27 357.13 98.93 362.66 99.26 368.56 C99.27 369.47 99.27 370.38 99.27 371.28 C99.27 371.53 99.27 371.53 99.27 372.77 C99.28 374.35 99.26 375.92 99.25 377.5 C99.25 377.77 99.25 377.77 99.24 379.13 C99.21 386.84 98.65 394.2 97.2 401.78 C96.76 404.5 96.82 407.25 97 410 C97.66 409.53 98.32 409.05 99 408.56 C102.43 406.47 106.07 406.28 110 406 C109.77 406.31 109.55 406.62 109.32 406.94 C101.15 418.24 93.56 429.97 88.8 443.14 C86.34 449.97 83.17 456.47 80 463 C79.67 463.68 79.34 464.36 79 465.06 C63.91 496.12 63.91 496.12 53.12 498.19 C45.87 499.77 39.01 502.47 32.09 505.13 C27.14 507.01 22.33 508.52 17.09 509.4 C14.09 509.91 14.09 509.91 13 511 C12.45 513.11 12.22 514.93 13 517 C15.46 517.86 17.93 517.56 20.5 517.38 C21.22 517.35 21.93 517.32 22.67 517.29 C24.45 517.22 26.22 517.12 28 517 C27.86 517.55 27.71 518.1 27.57 518.67 C22.73 537.42 22.73 537.42 27.66 543.95 C29.8 545.62 31.7 545.41 34.32 545.11 C37.39 544.91 37.39 544.91 39 546 C38.87 550.26 37.37 552.13 34.12 554.69 C33.95 554.83 33.95 554.83 33.06 555.58 C31.46 556.9 30.02 557.99 28.18 558.96 C27 560 27 560 27.08 562.16 C27.38 562.76 27.69 563.37 28 564 C33.19 564.29 37.33 561.28 41 558 C44.54 555.56 48.82 555.01 53 556 C54.16 557.75 54 558.84 54 561 C67.32 554.47 74.37 537.84 77.44 524.19 C79.72 514.27 87.81 506.74 95 500 C105.27 490.35 113.02 478.24 118.43 465.29 C118.91 464.21 119.45 463.15 120.01 462.11 C121.01 459.98 121.48 458.15 121.89 455.84 C122.04 455.05 122.19 454.26 122.34 453.45 C122.42 453.04 122.5 452.63 122.58 452.21 C123.79 445.72 125.01 439.49 128.43 433.74 C132.47 426.44 129.4 416.33 127.88 408.62 C127.76 408.06 127.65 407.49 127.54 406.9 C125.94 398.7 123.92 390.84 121.23 382.93 C119.4 377.5 118.03 372.08 116.8 366.49 C114.99 358.3 112.64 350.93 108.72 343.46 C107.96 341.92 107.32 340.37 106.68 338.77 C106.47 338.25 106.26 337.73 106.04 337.2 C105.65 336.22 105.27 335.24 104.91 334.25 C103.86 331.72 103.34 331.08 100.63 330.41 C97.17 330.75 95.5 333.19 93.44 335.75 Z M-213 353 C-213.44 354.5 -213.44 354.5 -213 356 C-211.88 356.21 -211.88 356.21 -210.5 356.31 C-209.11 356.49 -209.11 356.49 -208 357 C-207.68 358.6 -207.81 359.92 -208.02 361.53 C-208 363 -208 363 -207.27 364.15 C-205.5 365.33 -203.98 365.42 -201.88 365.62 C-201.15 365.7 -200.43 365.77 -199.68 365.85 C-199.13 365.9 -198.57 365.95 -198 366 C-199.21 365.89 -200.42 365.81 -201.62 365.75 C-201.96 365.73 -201.96 365.73 -203.66 365.61 C-207.14 366.19 -209.64 367.33 -212 370 C-213.04 372.97 -213.22 375.95 -213.38 379.06 C-213.43 379.94 -213.49 380.82 -213.56 381.71 C-213.68 383.54 -213.77 385.37 -213.86 387.2 C-213.94 389.07 -214.07 390.93 -214.23 392.79 C-215.28 404.94 -215.28 404.94 -214 409 C-211 410.85 -208.57 410.58 -205.27 409.55 C-203.23 408.66 -201.69 407.43 -200 406 C-199.94 406.4 -199.88 406.8 -199.82 407.21 C-199.73 407.74 -199.65 408.27 -199.56 408.81 C-199.48 409.33 -199.4 409.86 -199.32 410.39 C-199 411.99 -198.55 413.47 -198 415 C-202.97 416.35 -205.62 416.24 -209.64 412.91 C-211.27 411.82 -212.08 411.71 -214 412 C-214.4 413.08 -214.4 413.08 -214.44 414.61 C-214.45 415.18 -214.47 415.75 -214.49 416.34 C-214.5 416.97 -214.5 417.6 -214.5 418.25 C-214.51 418.89 -214.52 419.54 -214.53 420.2 C-214.55 421.57 -214.56 422.95 -214.56 424.32 C-214.56 426.4 -214.62 428.47 -214.67 430.54 C-214.78 438.75 -214.1 445.08 -208 451 C-205.35 452.49 -203 452.87 -200 453 C-199.71 453.01 -199.71 453.01 -198.25 453.09 C-176.01 454.01 -176.01 454.01 -172 450 C-169.86 449.58 -167.68 449.44 -165.5 449.25 C-164.89 449.18 -164.29 449.11 -163.66 449.04 C-163.08 448.99 -162.5 448.94 -161.91 448.89 C-161.37 448.84 -160.84 448.79 -160.29 448.74 C-159 449 -159 449 -158.26 450.44 C-158 452 -158 452 -158.93 453.1 C-167.65 458.69 -176.51 458.26 -186.5 458.12 C-187.81 458.11 -189.12 458.11 -190.44 458.1 C-193.63 458.08 -196.81 458.04 -200 458 C-199.1 463.34 -199.1 463.34 -197.34 465.5 C-197.02 465.91 -196.7 466.33 -196.38 466.75 C-195.71 467.59 -195.03 468.42 -194.35 469.25 C-192.31 471.93 -191.52 473.58 -192.51 476.89 C-194.14 480.57 -197.6 482.68 -201.4 483.55 C-202.22 483.68 -203.05 483.81 -203.88 483.94 C-207.81 484.63 -207.81 484.63 -208.68 486.34 C-208.84 489.93 -207.88 491.78 -205 494 C-203.16 493.96 -201.85 493.78 -200.1 493.34 C-199.62 493.24 -199.15 493.13 -198.66 493.02 C-197.12 492.68 -195.59 492.31 -194.06 491.94 C-193.01 491.7 -191.95 491.46 -190.9 491.22 C-185.57 489.98 -180.38 488.59 -175.25 486.69 C-169.95 484.75 -164.59 483.69 -159 485 C-157.36 486.35 -157 487.11 -156.7 489.21 C-157.32 492.9 -159.73 496.17 -163 498 C-169.3 500.16 -175.55 500.23 -182.12 500.06 C-195.43 499.77 -195.43 499.77 -199 501 C-199.16 503.41 -198.55 504.45 -196.85 506.14 C-193.98 507.47 -191.36 507.07 -188.25 506.81 C-187.57 506.76 -186.89 506.71 -186.18 506.66 C-183.79 506.46 -181.39 506.24 -179 506 C-178.76 505.98 -178.76 505.98 -177.56 505.86 C-174.47 505.56 -171.38 505.23 -168.29 504.87 C-167.27 504.75 -166.25 504.63 -165.22 504.53 C-163.76 504.37 -162.31 504.2 -160.86 504.01 C-160.43 503.97 -160 503.93 -159.55 503.88 C-156.08 503.4 -153.71 502.05 -152 499 C-151.46 496.39 -151.51 493.86 -151.57 491.2 C-151.58 490.44 -151.58 489.69 -151.58 488.91 C-151.6 486.5 -151.64 484.1 -151.69 481.69 C-151.7 480.08 -151.71 478.47 -151.72 476.86 C-151.73 475.31 -151.75 473.75 -151.76 472.2 C-151.77 471.48 -151.78 470.77 -151.78 470.03 C-151.79 469.68 -151.79 469.68 -151.82 467.94 C-151.83 467.65 -151.83 467.65 -151.85 466.14 C-151.98 464.32 -152.22 462.6 -152.5 460.8 C-153.13 456.6 -153.13 452.45 -153.1 448.21 C-153.1 447.35 -153.09 446.49 -153.09 445.63 C-153.09 443.79 -153.08 441.95 -153.08 440.11 C-153.06 437.19 -153.06 434.28 -153.05 431.36 C-153.04 424.63 -153.02 417.9 -152.99 411.18 C-152.97 405.02 -152.96 398.85 -152.95 392.69 C-152.94 390.27 -152.94 387.85 -152.92 385.43 C-152.8 359.39 -152.8 359.39 -155 355 C-157.26 354.27 -159.64 354.19 -162 354 C-162.22 353.98 -162.22 353.98 -163.31 353.86 C-166.28 353.58 -169.06 353.37 -172 354 C-173.15 356.06 -172.78 357.84 -172 360 C-171.34 360.67 -170.68 361.34 -170 362 C-170.33 362.33 -170.66 362.66 -171 363 C-171.36 365.04 -171.43 366.96 -171 369 C-169.06 370.06 -169.06 370.06 -167 371 C-166.53 372.25 -166.38 373.36 -166.27 374.68 C-166 376 -166 376 -164.8 377.53 C-164.67 377.77 -164.67 377.77 -164 379 C-165.05 380.1 -165.05 380.1 -166.75 381.06 C-169.9 382.89 -169.9 382.89 -171.14 384.18 C-171.42 384.45 -171.71 384.72 -172 385 C-172.33 384.67 -172.66 384.34 -173 384 C-174.58 383.97 -176.14 384.07 -177.72 384.16 C-178.14 384.11 -178.57 384.05 -179 384 C-179 383.34 -179 382.68 -179 382 C-177.54 381.73 -177.54 381.73 -175.62 381.62 C-172.95 381.3 -172.22 381.21 -170.19 379.31 C-169.91 375.84 -171.6 374.59 -174.07 372.31 C-176.72 370.51 -179.21 370.01 -182.36 369.62 C-184 369 -184 369 -184.93 367.01 C-184.96 366.35 -184.98 365.68 -185 365 C-183.67 364.31 -183.67 364.31 -181.75 364 C-178.04 363.15 -176.61 362.51 -175 359 C-174.76 357.06 -174.85 355.61 -176 354 C-178.65 353.34 -181.29 353.64 -184 353.81 C-185.64 353.87 -187.27 353.92 -188.91 353.96 C-189.12 353.97 -189.12 353.97 -190.18 353.99 C-195.4 354.09 -200.53 353.37 -205.69 352.62 C-206.36 352.53 -207.03 352.44 -207.72 352.34 C-208.31 352.25 -208.89 352.16 -209.5 352.07 C-211 352 -211 352 -213 353 Z M-144 363 C-144.58 364.73 -144.52 366.26 -144 368 C-142.56 368.62 -142.56 368.62 -141 368 C-140.39 366.37 -140.18 364.73 -140 363 C-142 362.69 -142 362.69 -144 363 Z M-179 365 C-179.19 366.5 -179.19 366.5 -179 368 C-177.5 367.62 -177.5 367.62 -176 367 C-176 366.34 -176 365.68 -176 365 C-177.5 364.69 -177.5 364.69 -179 365 Z M-229.27 384.26 C-229.48 384.61 -229.48 384.61 -230.51 386.38 C-230.95 387.15 -231.38 387.92 -231.81 388.69 C-232.26 389.47 -232.71 390.25 -233.16 391.03 C-236.57 397.02 -239.68 403.11 -242.35 409.47 C-242.78 410.48 -243.22 411.5 -243.67 412.51 C-245.32 416.28 -246.74 420.08 -248 424 C-248.2 424.62 -248.41 425.25 -248.62 425.89 C-252.13 437.27 -252.26 448.18 -251.88 460 C-251.85 460.71 -251.83 461.42 -251.81 462.15 C-251.04 484.46 -251.04 484.46 -246.25 493.19 C-246.12 493.43 -246.12 493.43 -245.46 494.68 C-244.66 496.14 -243.84 497.57 -243 499 C-242.75 499.44 -242.49 499.87 -242.23 500.32 C-238.31 506.87 -238.31 506.87 -235.46 507.16 C-233.94 506.81 -233.94 506.81 -232.45 506.29 C-230.49 505.9 -229.85 506.49 -228.25 507.62 C-227.04 508.48 -227.04 508.48 -226 509 C-224.56 507.94 -224.56 507.94 -224 506 C-224.96 503.88 -224.96 503.88 -226 502 C-217.18 506.69 -217.18 506.69 -214.31 509.19 C-211.07 511.92 -207.39 513.39 -203.12 512.81 C-202.77 512.68 -202.77 512.68 -201 512 C-200.7 510.57 -200.7 510.57 -201 509 C-202.14 508.05 -202.14 508.05 -203.69 507.09 C-209 502.93 -210.44 495.92 -212.6 489.78 C-216.76 478.11 -216.76 478.11 -221.77 474.95 C-223.29 473.78 -223.56 472.83 -224 471 C-218.44 472.17 -213.58 474.51 -208.53 477.06 C-207.99 477.32 -207.45 477.58 -206.89 477.86 C-206.41 478.1 -205.92 478.34 -205.42 478.59 C-203.59 479.12 -202.67 478.89 -201 478 C-200.87 472.79 -204.63 469.33 -207.81 465.56 C-211.47 461.18 -214.93 456.81 -218 452 C-218.53 451.21 -219.06 450.41 -219.6 449.62 C-220.61 448.12 -221.61 446.61 -222.61 445.1 C-223.4 443.9 -224.2 442.72 -225.05 441.56 C-227.29 438.35 -227.93 434.84 -227 431 C-226.5 430.57 -226.01 430.13 -225.5 429.69 C-223.63 427.58 -223.57 426.03 -223.61 423.34 C-223.61 423.12 -223.61 423.12 -223.6 421.95 C-223.58 420.44 -223.59 418.94 -223.6 417.43 C-223.6 416.38 -223.6 415.33 -223.59 414.28 C-223.59 412.08 -223.59 409.89 -223.61 407.69 C-223.63 404.87 -223.62 402.05 -223.6 399.23 C-223.59 397.06 -223.59 394.9 -223.6 392.74 C-223.6 391.69 -223.6 390.65 -223.59 389.61 C-223.58 388.16 -223.6 386.72 -223.61 385.27 C-223.61 384.83 -223.6 384.4 -223.59 383.95 C-223.62 382.76 -223.62 382.76 -224 381 C-227.07 380.26 -227.81 381.75 -229.27 384.26 Z M18.81 549.65 C17.63 550.74 16.74 551.57 16 553 C16.33 553.99 16.66 554.98 17 556 C19.31 554.35 21.62 552.7 24 551 C20.68 548.63 20.68 548.63 18.81 549.65 Z " fill="#C8102E" transform="translate(315,57)"/>
  <path d="M0 0 C1.03 0.02 2.06 0.03 3.08 0.04 C5.58 0.07 8.07 0.13 10.56 0.19 C8.69 4.09 7.41 5.93 3.07 6.73 C-1.37 7.43 -5.84 7.29 -10.31 7.25 C-11.2 7.24 -12.09 7.24 -12.98 7.24 C-15.13 7.23 -17.28 7.21 -19.44 7.19 C-18.81 3.5 -18.81 3.5 -17.21 2.15 C-11.5 -0.31 -6.1 -0.16 0 0 Z " fill="#C8102E" transform="translate(263.4375,127.8125)"/>
  <path d="M0 0 C5.28 0.43 9.38 1.81 14.06 4.25 C14.65 4.54 15.23 4.82 15.84 5.12 C20.51 7.5 25.71 10.34 28.06 15.19 C28 17 28 17 26.75 18.44 C26.17 18.62 25.6 18.81 25 19 C24.58 18.56 24.17 18.13 23.74 17.68 C21.5 15.52 19.26 14.8 16.38 13.75 C12.14 12.09 8.42 10.22 4.81 7.44 C4.63 7.3 4.63 7.3 3.68 6.59 C1.27 4.63 0.45 3.05 0 0 Z " fill="#C8102E" transform="translate(303,137)"/>
  <path d="M0 0 C0.64 -0.03 1.27 -0.06 1.93 -0.09 C2.5 -0.11 3.07 -0.14 3.65 -0.16 C4.05 -0.06 4.45 0.05 4.87 0.16 C5.16 1.63 5.16 1.63 4.87 3.16 C1.93 4.42 -0.15 4.12 -3.13 3.16 C-3.05 3.37 -3.05 3.37 -2.62 4.41 C-2.42 4.95 -2.22 5.48 -2.01 6.04 C-1.8 6.57 -1.59 7.11 -1.38 7.66 C-1.13 9.16 -1.13 9.16 -1.89 10.33 C-4.1 11.81 -6.61 11.95 -9.13 11.16 C-9.5 10.01 -9.5 10.01 -9.57 8.6 C-9.66 7.2 -9.66 7.2 -10.13 6.16 C-12.03 6.2 -13.74 6.61 -15.59 7.02 C-16.1 7.07 -16.61 7.12 -17.13 7.16 C-17.95 5.35 -17.95 5.35 -17.13 3.16 C-12.42 0.1 -5.4 0.42 0 0 Z " fill="#C8102E" transform="translate(264.1328125,147.8359375)"/>
  <path d="M0 0 C4.29 0.16 7.85 2.24 11.56 4.25 C12.13 4.54 12.69 4.82 13.27 5.12 C16.84 7.03 20.2 9.23 22 13 C21.06 15.06 21.06 15.06 19 16 C17.6 15.12 16.48 14.05 15.26 12.93 C14 12 14 12 11.88 12.19 C10.73 12.68 9.58 13.18 8.44 13.69 C7 14 7 14 5.31 13.38 C3.74 11.73 3.91 11.51 4.12 9.38 C4.08 8.59 4.04 7.81 4 7 C2.86 6.92 2.86 6.92 1.44 7.12 C0.63 7.08 -0.17 7.04 -1 7 C-1.45 4.52 -1.33 2.16 0 0 Z " fill="#C8102E" transform="translate(300,152)"/>
  <path d="M0 0 C4.43 0.54 8.52 2.14 12 5 C10.85 7.3 10.63 7.39 8.25 7.94 C5.38 8.35 4.21 7.73 2.12 5.75 C0.3 3.8 -0.27 2.68 0 0 Z " fill="#C8102E" transform="translate(262,178)"/>
  <path d="M0 0 C2.28 -0.52 4.67 -0.37 7 -0.38 C7.67 -0.4 8.34 -0.42 9.02 -0.45 C10.78 -0.46 12.31 -0.46 14 0 C14.56 2 14.56 2 14 4 C10.56 4.56 10.56 4.56 9 3 C7.05 2.77 5.11 2.6 3.15 2.48 C1.93 2.38 1.93 2.38 0 2 C0 1.34 0 0.68 0 0 Z " fill="#C8102E" transform="translate(275,184)"/>
  <path d="M0 0 C1.19 0.22 2.38 0.43 3.58 0.64 C4.98 0.88 6.37 1.14 7.77 1.41 C10.19 1.86 12.61 2.26 15.05 2.66 C16.43 2.9 17.81 3.13 19.19 3.38 C19.86 3.48 20.53 3.58 21.22 3.68 C21.53 3.74 21.53 3.74 23.11 4.02 C23.66 4.12 24.22 4.21 24.8 4.3 C26 5 26 5 26.43 7.03 C26.29 7.68 26.15 8.33 26 9 C24.34 9.47 24.34 9.47 22.02 9.43 C21.61 9.42 21.2 9.42 20.78 9.42 C19.45 9.4 18.13 9.36 16.81 9.31 C15.94 9.3 15.07 9.29 14.19 9.28 C7.38 9.18 7.38 9.18 4.3 8.47 C0.78 7.75 -2.71 8.06 -6.27 8.3 C-9.94 8.42 -11.92 7.95 -14.32 5.08 C-15.29 3.54 -15.67 2.74 -15 1 C-10.09 -1.14 -5.11 -1.25 0 0 Z " fill="#C8102E" transform="translate(269,189)"/>
  <path d="M0 0 C0.32 0 0.32 0 1.94 0.03 C2.19 0.03 2.19 0.03 3.44 0.06 C-0.42 5.62 -0.42 5.62 -4.56 6.06 C-4.72 -0.09 -4.72 -0.09 0 0 Z " fill="#C8102E" transform="translate(341.5625,190.9375)"/>
  <path d="M0 0 C1.44 -0.19 1.44 -0.19 3 0 C3.88 1.38 3.88 1.38 4 3 C2.56 4.19 2.56 4.19 1 5 C0.84 4.18 0.84 4.18 0 0 Z " fill="#C8102E" transform="translate(242,198)"/>
  <path d="M0 0 C0.37 0.02 0.37 0.02 2.23 0.15 C7.67 0.54 7.67 0.54 8.81 1.69 C12.41 2.05 16.08 2.26 19.38 0.62 C22.48 -0.9 25.56 -0.01 28.81 0.69 C26.72 4.64 24.46 5.97 20.19 6.88 C14.83 8.07 11.92 11.05 8.48 15.2 C5.41 18.71 2.53 19.89 -2.19 19.69 C-5.03 18.71 -6.68 17.31 -8.56 15 C-9.25 12.46 -9 11.07 -8.56 8.5 C-8.21 6.39 -8.21 6.39 -8.19 4.69 C-10.12 3.81 -10.12 3.81 -12.19 3.69 C-12.19 1.69 -12.19 1.69 -10.7 0.54 C-7.33 -0.98 -3.58 -0.3 0 0 Z M-6.19 2.69 C-6.05 3.48 -5.9 4.26 -5.76 5.07 C-5.68 5.52 -5.6 5.96 -5.52 6.42 C-4.94 8.65 -4.13 9.46 -2.19 10.69 C1.11 11.5 3.72 11.63 6.38 9.34 C7.63 7.84 8.75 6.33 9.81 4.69 C6.03 2.93 3.14 2.42 -1 2.56 C-1.25 2.57 -1.25 2.57 -2.52 2.59 C-3.74 2.61 -4.97 2.65 -6.19 2.69 Z M-4.19 12.69 C-4.19 13.35 -4.19 14.01 -4.19 14.69 C-3.2 14.36 -2.21 14.03 -1.19 13.69 C-2.18 13.36 -3.17 13.03 -4.19 12.69 Z " fill="#C8102E" transform="translate(271.1875,201.3125)"/>
  <path d="M0 0 C1.45 0.42 2.9 0.81 4.35 1.2 C13.11 3.62 17.87 5.61 21.12 14.6 C21.58 16.87 21.72 18.73 20.36 20.72 C17.54 22.73 12.98 21.76 9.62 21.6 C9.16 21.58 8.69 21.56 8.22 21.54 C-0.13 21.14 -16.45 19.74 -21.88 12.6 C-22.43 10.66 -22.53 8.67 -22.69 6.66 C-22.76 6.13 -22.82 5.59 -22.89 5.03 C-22.93 4.51 -22.98 3.99 -23.02 3.45 C-23.07 2.97 -23.11 2.5 -23.16 2.01 C-21.39 -6.9 -5.76 -1.67 0 0 Z M-18.88 6.6 C-19.24 8.34 -19.33 9.88 -18.88 11.6 C-17.25 12.59 -16.3 12.95 -14.5 13.35 C-14.05 13.47 -13.6 13.58 -13.13 13.7 C-8.42 14.84 -3.71 15.38 1.12 15.6 C1.71 15.63 2.29 15.67 2.89 15.7 C4.8 15.8 6.71 15.86 8.62 15.91 C9.23 15.94 9.84 15.97 10.48 16 C15.28 16.07 15.28 16.07 16.96 13.77 C17.02 13.05 17.07 12.34 17.12 11.6 C15.02 10.06 12.58 9.39 10.12 8.6 C9.41 8.37 8.71 8.14 7.98 7.9 C5.72 7.2 3.46 6.55 1.18 5.91 C0.42 5.69 -0.34 5.46 -1.12 5.23 C-15.84 1.1 -15.84 1.1 -18.88 6.6 Z " fill="#C8102E" transform="translate(131.879150390625,359.398681640625)"/>
  <path d="M0 0 C0.78 0.04 1.57 0.08 2.38 0.12 C0.93 2.78 -0.51 5.43 -1.96 8.08 C-3.01 9.99 -4.04 11.9 -5.07 13.82 C-5.5 14.63 -5.94 15.44 -6.38 16.25 C-6.76 16.97 -7.15 17.7 -7.55 18.45 C-8.62 20.12 -8.62 20.12 -10.62 21.12 C-11.95 14.15 -8.04 6.35 -3.69 0.97 C-2.36 -0.08 -1.68 -0.09 0 0 Z " fill="#C8102E" transform="translate(370.625,405.875)"/>
  <path d="M0 0 C1.44 -0.08 2.87 -0.14 4.31 -0.19 C4.71 -0.2 4.71 -0.2 6.74 -0.29 C9.47 0.06 10.41 0.77 12 3 C11.55 3.43 11.09 3.87 10.62 4.31 C9 6 9 6 9.19 7.38 C9.33 7.9 9.48 8.41 9.62 8.94 C10.28 11.67 10.28 11.67 9 13.21 C7.62 14.25 7.62 14.25 6.23 15.14 C5 16 5 16 4 18 C5.98 18.33 7.96 18.66 10 19 C7.2 22.2 6.34 23.15 2 23 C1.7 24.42 1.7 24.42 2 26 C3.31 26.73 3.31 26.73 5 27.19 C5.28 27.27 5.28 27.27 6.69 27.67 C6.9 27.72 6.9 27.72 8 28 C7.44 29.5 7.44 29.5 6 31 C3.32 31.45 0.2 31.87 -2.09 30.21 C-4 27.67 -3.11 24.02 -2.94 21 C-2.92 20.26 -2.91 19.53 -2.89 18.77 C-2.61 13.44 -2.61 13.44 -0.79 12.12 C0.45 11.68 1.72 11.33 3 11 C2.37 9.65 1.7 8.32 1 7 C2.81 5.88 2.81 5.88 5 5 C5.33 4.34 5.66 3.68 6 3 C5.2 3.06 4.39 3.12 3.56 3.19 C2.19 3.29 2.19 3.29 1 3 C0.34 1.49 0.34 1.49 0 0 Z " fill="#C8102E" transform="translate(109,429)"/>
  <path d="M0 0 C0.71 0.02 1.43 0.03 2.16 0.05 C3.94 0.25 3.94 0.25 4.94 1.25 C4.99 2.67 4.99 2.67 4.89 4.51 C4.85 5.21 4.81 5.9 4.77 6.62 C4.72 7.39 4.67 8.15 4.62 8.94 C4.58 9.73 4.53 10.52 4.48 11.33 C4.34 13.5 4.19 15.68 4.04 17.85 C3.97 18.8 3.9 19.74 3.84 20.69 C3.64 23.62 3.42 26.56 3.18 29.5 C3.1 30.45 3.03 31.4 2.96 32.35 C2.56 37.94 2.02 43.38 -1.06 48.25 C-3.06 49.44 -3.06 49.44 -5.06 49.25 C-7.81 46.35 -8.5 44.19 -8.39 40.19 C-8.39 39.71 -8.39 39.24 -8.38 38.75 C-8.38 37.76 -8.36 36.76 -8.34 35.77 C-8.31 34.25 -8.3 32.74 -8.3 31.23 C-8.29 30.26 -8.28 29.28 -8.27 28.31 C-8.26 27.86 -8.26 27.42 -8.25 26.95 C-8.19 24.24 -7.75 21.87 -7.06 19.25 C-6.95 17.99 -6.86 16.73 -6.82 15.46 C-6.78 14.77 -6.75 14.07 -6.72 13.36 C-6.66 11.91 -6.6 10.46 -6.54 9.01 C-6.51 8.31 -6.48 7.62 -6.44 6.9 C-6.42 6.27 -6.39 5.64 -6.37 5 C-5.65 0.89 -4.02 -0.15 0 0 Z M-2.06 6.25 C-2.29 7.54 -2.29 7.54 -2.26 9.31 C-2.25 9.94 -2.24 10.58 -2.24 11.23 C-2.22 11.89 -2.2 12.56 -2.19 13.25 C-2.18 13.92 -2.17 14.59 -2.16 15.27 C-2.14 16.93 -2.1 18.59 -2.06 20.25 C-0.06 19.25 -0.06 19.25 0.2 17.94 C0.2 17.4 0.2 16.86 0.2 16.31 C0.21 15.73 0.21 15.14 0.21 14.54 C0.2 13.93 0.2 13.32 0.19 12.69 C0.2 12.07 0.2 11.46 0.21 10.82 C0.21 10.24 0.21 9.66 0.2 9.06 C0.2 8.79 0.2 8.79 0.2 7.43 C0.11 7.04 0.03 6.65 -0.06 6.25 C-0.72 6.25 -1.38 6.25 -2.06 6.25 Z M-4.06 30.25 C-3.73 31.57 -3.4 32.89 -3.06 34.25 C-2.73 32.93 -2.4 31.61 -2.06 30.25 C-2.72 30.25 -3.38 30.25 -4.06 30.25 Z " fill="#C8102E" transform="translate(395.0625,434.75)"/>
  <path d="M0 0 C1.19 0.02 1.19 0.02 2.56 0.38 C3.02 0.49 3.47 0.6 3.94 0.71 C4.29 0.81 4.64 0.9 5 1 C3.25 4.88 3.25 4.88 1 6 C-0.54 6.12 -2.08 6.18 -3.62 6.19 C-4.44 6.2 -5.26 6.22 -6.1 6.23 C-6.73 6.15 -7.35 6.08 -8 6 C-8 5.34 -8 4.68 -8 4 C-6.5 3.44 -6.5 3.44 -4.56 3 C-1.11 2.22 -1.11 2.22 0 0 Z " fill="#C8102E" transform="translate(145,444)"/>
  <path d="M0 0 C0.47 1.63 0.25 2.86 0.02 4.53 C0.01 5.02 0.01 5.5 0 6 C2 7.38 2 7.38 4 8 C2.9 9.38 2.4 9.98 0.59 10.08 C-3 9.5 -6.51 8.7 -10 7.69 C-10.78 7.46 -11.57 7.24 -12.38 7.01 C-12.64 6.84 -12.64 6.84 -14 6 C-13.88 3.97 -13.88 3.97 -13 2 C-9.25 -0.28 -4.28 -1.24 0 0 Z " fill="#C8102E" transform="translate(146,454)"/>
  <path d="M0 0 C4.91 -1.29 10.43 -0.01 15 2 C14.12 3.5 14.12 3.5 13 5 C12.34 5 11.68 5 11 5 C11.14 5.33 11.29 5.65 11.44 5.99 C13.54 10.93 13.54 10.93 13 13 C11.77 14.46 10.43 15.74 9 17 C8.9 16.55 8.79 16.09 8.69 15.62 C8 14 8 14 6.56 13.19 C4.43 11.57 4.25 9.89 3.54 7.38 C2.82 5.53 1.64 5.04 0 4 C-0.34 1.97 -0.34 1.97 0 0 Z " fill="#C8102E" transform="translate(364,465)"/>
  <path d="M0 0 C0.54 0.01 1.08 0.02 1.63 0.03 C1.84 0.03 1.84 0.03 2.88 0.06 C1.88 2.06 1.88 2.06 0.25 2.55 C-0.39 2.63 -1.03 2.72 -1.69 2.81 C-2.01 2.86 -2.01 2.86 -3.63 3.11 C-4.12 3.09 -4.62 3.08 -5.12 3.06 C-5.12 2.4 -5.12 1.74 -5.12 1.06 C-3.07 0.04 -2.22 -0.05 0 0 Z " fill="#C8102E" transform="translate(144.125,467.9375)"/>
  <path d="M0 0 C0.12 0.64 0.24 1.28 0.37 1.94 C1 4 1 4 2.85 4.83 C3.58 4.97 4.31 5.11 5.06 5.25 C5.8 5.4 6.53 5.55 7.29 5.7 C7.85 5.8 8.42 5.9 9 6 C7.48 9.04 5.24 8.86 2.06 9.44 C1.51 9.57 0.96 9.69 0.39 9.83 C-1.2 10.12 -2.41 10.31 -4 10 C-6.01 7.53 -6.44 4.07 -6 1 C-3.73 -0.14 -2.5 -0.4 0 0 Z " fill="#C8102E" transform="translate(138,470)"/>
  <path d="M0 0 C1.56 0.31 1.56 0.31 3 1 C2.69 2.56 2.69 2.56 2 4 C1.34 2.68 0.68 1.36 0 0 Z " fill="#C8102E" transform="translate(118,474)"/>
  <path d="M0 0 C2.06 0.31 2.06 0.31 4 1 C3.88 2.56 3.88 2.56 3 4 C2.34 4 1.68 4 1 4 C0.38 2 0.38 2 0 0 Z " fill="#C8102E" transform="translate(361,475)"/>
  <path d="M0 0 C0.66 0.33 0.66 0.33 4 2 C2.68 2.33 1.36 2.66 0 3 C0 2.01 0 1.02 0 0 Z " fill="#C8102E" transform="translate(111,480)"/>
  <path d="M0 0 C0.4 1.5 0.4 1.5 0.38 3.44 C0.52 5.38 0.52 5.38 1 7 C2.97 7.98 4.82 8.05 7 8 C6.67 8.66 6.34 9.32 6 10 C4.41 10.21 3.03 10.28 1.44 10.25 C0.99 10.24 0.55 10.24 0.09 10.23 C-10.29 9.9 -10.29 9.9 -13.03 6.86 C-13.71 5.2 -13.83 4.61 -13 3 C-9.25 0.96 -4.28 -0.72 0 0 Z M-7 3 C-6.67 4.32 -6.34 5.64 -6 7 C-4.68 5.68 -3.36 4.36 -2 3 C-3.65 3 -5.3 3 -7 3 Z " fill="#C8102E" transform="translate(144,483)"/>
  <path d="M0 0 C1.56 0.25 1.56 0.25 3 1 C3 1.66 3 2.32 3 3 C3.58 2.48 4.15 1.97 4.75 1.44 C6.59 0.03 6.8 -0.03 9.25 0.31 C9.83 0.54 10.4 0.77 11 1 C9.98 4.06 9.17 5.19 6.06 6.25 C4.02 6.86 2.13 7.31 0 7 C-1.35 2.71 -1.35 2.71 0 0 Z " fill="#C8102E" transform="translate(367,484)"/>
  <path d="M0 0 C1.56 0.38 1.56 0.38 3 1 C2.67 1.66 2.34 2.32 2 3 C1.34 3 0.68 3 0 3 C-0.12 1.5 -0.12 1.5 0 0 Z " fill="#C8102E" transform="translate(361,485)"/>
  <path d="M0 0 C1.95 -0.06 3.58 0.05 5.5 0.31 C6.02 0.37 6.55 0.43 7.09 0.5 C8.39 0.65 9.7 0.82 11 1 C8.44 6.59 4.7 9.04 -1 11 C-0.44 7.73 0.5 6.17 3 4 C2.5 3.9 2.01 3.79 1.5 3.69 C0 3 0 3 -0.44 1.44 C-0.29 0.96 -0.15 0.49 0 0 Z " fill="#C8102E" transform="translate(108,487)"/>
  <path d="M0 0 C1.88 -0.15 3.62 -0.19 5.5 -0.12 C5.76 -0.12 5.76 -0.12 7.09 -0.1 C8.39 -0.07 9.7 -0.04 11 0 C10.82 1.51 10.82 1.51 10 3 C8.16 3.12 6.74 3.06 4.94 2.81 C4.47 2.77 3.99 2.72 3.51 2.68 C2.15 2.52 2.15 2.52 0 2 C0 1.34 0 0.68 0 0 Z " fill="#C8102E" transform="translate(365,496)"/>
  <path d="M0 0 C0.66 0.31 1.32 0.62 2 0.94 C5.54 2.37 9.23 2.64 13 3 C12.74 4.51 12.74 4.51 12 6 C8.01 6.34 3.24 5.43 0 3 C-0.25 1.38 -0.25 1.38 0 0 Z " fill="#C8102E" transform="translate(130,499)"/>
  <path d="M0 0 C4.79 -0.15 9.58 1.27 14 3 C9.68 7.94 6.02 8.1 -0.39 8.23 C-0.92 8.15 -1.45 8.08 -2 8 C-2 7.34 -2 6.68 -2 6 C-0.91 5.37 -0.91 5.37 0.5 4.88 C0.96 4.71 1.43 4.54 1.91 4.37 C2.27 4.25 2.63 4.12 3 4 C2.5 3.71 2.01 3.42 1.5 3.12 C0 2 0 2 0 0 Z " fill="#C8102E" transform="translate(361,502)"/>
  <path d="M0 0 C-0.18 0.21 -0.18 0.21 -1.06 1.25 C-2.31 3.58 -1.94 4.58 -1 7 C-0.62 7.33 -0.24 7.66 0.14 8 C0.43 8.33 0.71 8.66 1 9 C-0.33 11.64 -2.88 13.07 -5.62 13.81 C-8.21 14.68 -8.64 16.03 -9.44 18.56 C-9.93 20.44 -9.93 20.44 -10 22 C-9.34 22.33 -8.68 22.66 -8 23 C-9.31 24.31 -9.71 24.06 -11.5 23.88 C-12 23.83 -12.49 23.78 -13 23.73 C-13.51 23.68 -14.03 23.62 -14.56 23.56 C-15.08 23.51 -15.6 23.46 -16.14 23.4 C-17.43 23.27 -18.71 23.14 -20 23 C-19.83 23.35 -19.67 23.71 -19.5 24.07 C-19.3 24.53 -19.09 24.99 -18.89 25.46 C-18.68 25.92 -18.47 26.37 -18.26 26.85 C-18.17 27.23 -18.09 27.61 -18 28 C-19.81 28.62 -19.81 28.62 -22 29 C-22.69 30.56 -22.69 30.56 -23 32 C-23.33 32 -23.66 32 -24 32 C-25.01 26.5 -23.93 17.86 -21 13 C-18.38 12.13 -16.5 13.07 -14 14 C-11.36 14.33 -11.36 14.33 -10.05 13.12 C-9.81 12.75 -9.56 12.38 -9.31 12 C-8.88 11.34 -8.45 10.68 -8 10 C-8.35 9.87 -8.7 9.73 -9.06 9.6 C-9.51 9.42 -9.97 9.24 -10.44 9.06 C-10.89 8.89 -11.34 8.71 -11.81 8.54 C-13.27 7.88 -13.86 7.4 -14.38 5.88 C-14.6 4.31 -14.65 3.45 -14 2 C-9.72 -0.1 -4.7 -0.32 0 0 Z " fill="#C8102E" transform="translate(371,514)"/>
  <path d="M0 0 C1.52 0.16 2.48 0.34 3.73 1.21 C3.66 4.26 3.27 6.34 0.73 8.21 C-0.96 8.52 -0.96 8.52 -2.83 8.53 C-3.45 8.54 -4.07 8.56 -4.71 8.58 C-6.27 8.21 -6.27 8.21 -7.09 6.72 C-7.15 6.23 -7.21 5.73 -7.27 5.21 C-6.67 5.07 -6.07 4.93 -5.45 4.78 C-3.27 4.21 -3.27 4.21 -2.33 2.09 C-1.27 0.21 -1.27 0.21 0 0 Z " fill="#C8102E" transform="translate(341.265625,522.78515625)"/>
  <path d="M0 0 C1.49 0.31 1.49 0.31 3 1 C3.29 2.41 3.29 2.41 3.19 4.06 C3.16 4.61 3.13 5.16 3.11 5.72 C3.07 6.14 3.04 6.57 3 7 C3.29 6.34 3.58 5.68 3.88 5 C4.25 4.34 4.62 3.68 5 3 C5.66 3 6.32 3 7 3 C8.22 5.93 8.91 8.83 9 12 C6.31 13.58 6.31 13.58 4 13 C0.25 10.94 0.25 10.94 -0.32 8.82 C-0.39 7.46 -0.35 6.17 -0.25 4.81 C-0.23 4.35 -0.21 3.89 -0.2 3.41 C-0.15 2.27 -0.08 1.14 0 0 Z " fill="#C8102E" transform="translate(327,533)"/>
  <path d="M0 0 C0.99 0.33 1.98 0.66 3 1 C3.14 2.16 3.14 2.16 2.81 3.5 C2.72 3.94 2.62 4.39 2.52 4.84 C2 6 2 6 0 7 C0 4.69 0 2.38 0 0 Z " fill="#C8102E" transform="translate(339,536)"/>
  <path d="M0 0 C1.56 -0.15 2.95 -0.19 4.5 -0.12 C4.93 -0.12 5.36 -0.11 5.8 -0.1 C6.87 -0.07 7.93 -0.04 9 0 C8.23 1.51 8.23 1.51 7 3 C5.27 3.14 5.27 3.14 3.38 2.81 C2.74 2.72 2.11 2.62 1.46 2.52 C0.98 2.35 0.5 2.18 0 2 C0 1.34 0 0.68 0 0 Z " fill="#C8102E" transform="translate(353,542)"/>
  <path d="M0 0 C1.32 0.33 2.64 0.66 4 1 C2.68 1.33 1.36 1.66 0 2 C0 1.34 0 0.68 0 0 Z " fill="#C8102E" transform="translate(382,561)"/>
  <path d="M0 0 C2.06 0.94 2.06 0.94 4 2 C1.42 4.95 1.42 4.95 -0.69 5.19 C-1.12 5.13 -1.55 5.06 -2 5 C-1.12 1.12 -1.12 1.12 0 0 Z " fill="#C8102E" transform="translate(387,563)"/>
  <path d="M0 0 C1.88 0.56 1.88 0.56 2.54 2.18 C2.99 5.35 2.59 8.16 2.12 11.31 C2.05 11.88 1.98 12.44 1.9 13.02 C1.43 16.33 0.89 19.57 0.12 22.82 C-2.52 34.45 -2.3 45.57 -1.87 57.4 C-1.78 59.95 -1.7 62.5 -1.63 65.05 C-1.61 65.56 -1.6 66.06 -1.58 66.57 C-1.51 69.06 -1.44 71.55 -1.37 74.03 C-1.36 74.51 -1.34 74.99 -1.33 75.49 C-1.3 76.44 -1.28 77.4 -1.25 78.35 C-1.18 81.14 -1.07 83.93 -0.93 86.71 C-0.87 88.01 -0.83 89.31 -0.78 90.61 C-0.73 92.2 -0.66 93.78 -0.56 95.37 C-0.48 98.89 -0.48 98.89 -1.12 100.56 C-3.2 101.35 -5.02 101.19 -7.12 100.56 C-7.78 99.13 -7.78 99.13 -7.62 97.12 C-7.57 96.39 -7.52 95.65 -7.47 94.89 C-7.14 92.67 -6.67 90.55 -6.12 88.38 C-3.52 77.44 -5.05 68.66 -10.02 58.78 C-16.68 44.85 -11.48 27.84 -7.62 13.69 C-7.42 12.94 -7.22 12.2 -7.02 11.44 C-4.03 1.07 -4.03 1.07 0 0 Z " fill="#C8102E" transform="translate(254.125,578.4375)"/>
  <path d="M0 0 C0.66 0 1.32 0 2 0 C2.35 3.42 2.35 3.42 2 5 C1.67 5.16 1.67 5.16 0 6 C-0.05 5 -0.09 4 -0.12 3 C-0.15 2.44 -0.17 1.89 -0.2 1.31 C-0.13 0.88 -0.07 0.45 0 0 Z " fill="#C8102E" transform="translate(321,651)"/>
  <path d="M0 0 C0.22 0.15 0.22 0.15 1.33 0.89 C1.36 2.64 1.23 3.85 0.83 5.52 C0.74 5.93 0.64 6.35 0.55 6.78 C-0.27 9.72 -0.27 9.72 -1.93 10.44 C-3.54 10.23 -4.4 9.91 -5.67 8.89 C-6.31 6.24 -6.34 4.93 -4.86 2.64 C-2.35 -0.15 -2.35 -0.15 0 0 Z " fill="#C8102E" transform="translate(300.66796875,669.109375)"/>
</g>
</svg>
